<svg xmlns="http://www.w3.org/2000/svg" viewBox="0 0 600 470" width="600" height="470">
<rect width="600" height="470" fill="#1B2A4A"/>
<g transform="translate(215,40) scale(0.32)"><g stroke="#D8C79E" stroke-width="3" opacity="1">
<line x1="160" y1="57" x2="206" y2="65"/>
<line x1="160" y1="57" x2="113" y2="62"/>
<line x1="206" y1="65" x2="244" y2="107"/>
<line x1="244" y1="107" x2="282" y2="145"/>
<line x1="282" y1="145" x2="282" y2="214"/>
<line x1="282" y1="214" x2="282" y2="281"/>
<line x1="282" y1="214" x2="225" y2="212"/>
<line x1="282" y1="281" x2="282" y2="350"/>
<line x1="282" y1="281" x2="232" y2="266"/>
<line x1="282" y1="350" x2="282" y2="422"/>
<line x1="282" y1="350" x2="239" y2="384"/>
<line x1="282" y1="422" x2="277" y2="476"/>
<line x1="282" y1="422" x2="239" y2="384"/>
<line x1="277" y1="476" x2="246" y2="527"/>
<line x1="246" y1="527" x2="205" y2="562"/>
<line x1="246" y1="527" x2="191" y2="512"/>
<line x1="205" y1="562" x2="160" y2="577"/>
<line x1="205" y1="562" x2="191" y2="512"/>
<line x1="160" y1="577" x2="114" y2="564"/>
<line x1="114" y1="564" x2="76" y2="524"/>
<line x1="76" y1="524" x2="34" y2="490"/>
<line x1="76" y1="524" x2="116" y2="479"/>
<line x1="34" y1="490" x2="21" y2="416"/>
<line x1="21" y1="416" x2="9" y2="350"/>
<line x1="21" y1="416" x2="86" y2="426"/>
<line x1="21" y1="416" x2="65" y2="366"/>
<line x1="9" y1="350" x2="0" y2="278"/>
<line x1="9" y1="350" x2="65" y2="366"/>
<line x1="0" y1="278" x2="11" y2="207"/>
<line x1="0" y1="278" x2="53" y2="251"/>
<line x1="11" y1="207" x2="44" y2="155"/>
<line x1="11" y1="207" x2="53" y2="251"/>
<line x1="44" y1="155" x2="78" y2="110"/>
<line x1="44" y1="155" x2="105" y2="155"/>
<line x1="78" y1="110" x2="113" y2="62"/>
<line x1="78" y1="110" x2="105" y2="155"/>
<line x1="189" y1="437" x2="239" y2="384"/>
<line x1="189" y1="437" x2="149" y2="391"/>
<line x1="239" y1="384" x2="199" y2="346"/>
<line x1="86" y1="426" x2="116" y2="479"/>
<line x1="86" y1="426" x2="65" y2="366"/>
<line x1="105" y1="155" x2="157" y2="146"/>
<line x1="105" y1="155" x2="111" y2="212"/>
<line x1="53" y1="251" x2="111" y2="212"/>
<line x1="157" y1="146" x2="111" y2="212"/>
<line x1="225" y1="212" x2="232" y2="266"/>
<line x1="225" y1="212" x2="173" y2="251"/>
<line x1="65" y1="366" x2="118" y2="348"/>
<line x1="232" y1="266" x2="173" y2="251"/>
<line x1="199" y1="346" x2="149" y2="391"/>
<line x1="149" y1="391" x2="118" y2="348"/>
<line x1="118" y1="292" x2="173" y2="251"/>
<line x1="118" y1="292" x2="118" y2="348"/>
<line x1="440" y1="71" x2="484" y2="78"/>
<line x1="440" y1="71" x2="395" y2="69"/>
<line x1="484" y1="78" x2="527" y2="99"/>
<line x1="527" y1="99" x2="560" y2="149"/>
<line x1="527" y1="99" x2="487" y2="157"/>
<line x1="560" y1="149" x2="590" y2="206"/>
<line x1="560" y1="149" x2="527" y2="197"/>
<line x1="590" y1="206" x2="596" y2="279"/>
<line x1="590" y1="206" x2="527" y2="197"/>
<line x1="596" y1="279" x2="595" y2="350"/>
<line x1="596" y1="279" x2="539" y2="259"/>
<line x1="595" y1="350" x2="579" y2="416"/>
<line x1="595" y1="350" x2="528" y2="327"/>
<line x1="579" y1="416" x2="563" y2="485"/>
<line x1="579" y1="416" x2="518" y2="392"/>
<line x1="563" y1="485" x2="523" y2="522"/>
<line x1="563" y1="485" x2="516" y2="442"/>
<line x1="523" y1="522" x2="484" y2="557"/>
<line x1="484" y1="557" x2="440" y2="577"/>
<line x1="440" y1="577" x2="395" y2="559"/>
<line x1="395" y1="559" x2="351" y2="537"/>
<line x1="351" y1="537" x2="318" y2="485"/>
<line x1="318" y1="485" x2="318" y2="424"/>
<line x1="318" y1="424" x2="318" y2="353"/>
<line x1="318" y1="424" x2="376" y2="451"/>
<line x1="318" y1="353" x2="318" y2="280"/>
<line x1="318" y1="353" x2="376" y2="387"/>
<line x1="318" y1="280" x2="318" y2="207"/>
<line x1="318" y1="207" x2="319" y2="147"/>
<line x1="319" y1="147" x2="357" y2="109"/>
<line x1="357" y1="109" x2="395" y2="69"/>
<line x1="357" y1="109" x2="416" y2="148"/>
<line x1="518" y1="392" x2="516" y2="442"/>
<line x1="518" y1="392" x2="528" y2="327"/>
<line x1="518" y1="392" x2="475" y2="353"/>
<line x1="390" y1="193" x2="416" y2="148"/>
<line x1="390" y1="193" x2="438" y2="219"/>
<line x1="539" y1="259" x2="479" y2="269"/>
<line x1="376" y1="451" x2="434" y2="496"/>
<line x1="376" y1="451" x2="376" y2="387"/>
<line x1="458" y1="448" x2="516" y2="442"/>
<line x1="458" y1="448" x2="434" y2="496"/>
<line x1="458" y1="448" x2="440" y2="394"/>
<line x1="487" y1="157" x2="527" y2="197"/>
<line x1="528" y1="327" x2="475" y2="353"/>
<line x1="376" y1="387" x2="400" y2="318"/>
<line x1="376" y1="387" x2="440" y2="394"/>
<line x1="400" y1="318" x2="402" y2="267"/>
<line x1="479" y1="269" x2="438" y2="219"/>
<line x1="440" y1="394" x2="475" y2="353"/>
<line x1="438" y1="219" x2="402" y2="267"/>
</g>
<g fill="#C2A35B">
<circle cx="160" cy="57" r="8"/>
<circle cx="206" cy="65" r="9"/>
<circle cx="244" cy="107" r="8"/>
<circle cx="282" cy="145" r="14"/>
<circle cx="282" cy="214" r="12"/>
<circle cx="282" cy="281" r="8"/>
<circle cx="282" cy="350" r="14"/>
<circle cx="282" cy="422" r="14"/>
<circle cx="277" cy="476" r="14"/>
<circle cx="246" cy="527" r="12"/>
<circle cx="205" cy="562" r="8"/>
<circle cx="160" cy="577" r="9"/>
<circle cx="114" cy="564" r="11"/>
<circle cx="76" cy="524" r="9"/>
<circle cx="34" cy="490" r="11"/>
<circle cx="21" cy="416" r="12"/>
<circle cx="9" cy="350" r="11"/>
<circle cx="0" cy="278" r="8"/>
<circle cx="11" cy="207" r="14"/>
<circle cx="44" cy="155" r="12"/>
<circle cx="78" cy="110" r="11"/>
<circle cx="113" cy="62" r="14"/>
<circle cx="189" cy="437" r="15"/>
<circle cx="239" cy="384" r="7"/>
<circle cx="86" cy="426" r="9"/>
<circle cx="105" cy="155" r="15"/>
<circle cx="53" cy="251" r="7"/>
<circle cx="191" cy="512" r="15"/>
<circle cx="116" cy="479" r="11"/>
<circle cx="157" cy="146" r="15"/>
<circle cx="225" cy="212" r="12"/>
<circle cx="111" cy="212" r="15"/>
<circle cx="65" cy="366" r="9"/>
<circle cx="232" cy="266" r="12"/>
<circle cx="199" cy="346" r="9"/>
<circle cx="149" cy="391" r="12"/>
<circle cx="118" cy="292" r="12"/>
<circle cx="173" cy="251" r="11"/>
<circle cx="118" cy="348" r="12"/>
<circle cx="440" cy="71" r="14"/>
<circle cx="484" cy="78" r="14"/>
<circle cx="527" cy="99" r="14"/>
<circle cx="560" cy="149" r="8"/>
<circle cx="590" cy="206" r="9"/>
<circle cx="596" cy="279" r="12"/>
<circle cx="595" cy="350" r="9"/>
<circle cx="579" cy="416" r="8"/>
<circle cx="563" cy="485" r="14"/>
<circle cx="523" cy="522" r="8"/>
<circle cx="484" cy="557" r="14"/>
<circle cx="440" cy="577" r="14"/>
<circle cx="395" cy="559" r="14"/>
<circle cx="351" cy="537" r="14"/>
<circle cx="318" cy="485" r="8"/>
<circle cx="318" cy="424" r="9"/>
<circle cx="318" cy="353" r="8"/>
<circle cx="318" cy="280" r="14"/>
<circle cx="318" cy="207" r="8"/>
<circle cx="319" cy="147" r="11"/>
<circle cx="357" cy="109" r="9"/>
<circle cx="395" cy="69" r="9"/>
<circle cx="518" cy="392" r="7"/>
<circle cx="390" cy="193" r="7"/>
<circle cx="539" cy="259" r="9"/>
<circle cx="376" cy="451" r="8"/>
<circle cx="458" cy="448" r="12"/>
<circle cx="516" cy="442" r="7"/>
<circle cx="416" cy="148" r="15"/>
<circle cx="487" cy="157" r="11"/>
<circle cx="434" cy="496" r="15"/>
<circle cx="527" cy="197" r="11"/>
<circle cx="528" cy="327" r="15"/>
<circle cx="376" cy="387" r="11"/>
<circle cx="400" cy="318" r="12"/>
<circle cx="479" cy="269" r="11"/>
<circle cx="440" cy="394" r="9"/>
<circle cx="438" cy="219" r="8"/>
<circle cx="402" cy="267" r="9"/>
<circle cx="475" cy="353" r="8"/>
</g></g><g text-anchor="middle"><text x="300" y="380" font-family="Cambria, Georgia, 'Times New Roman', serif" font-size="110" font-weight="600" letter-spacing="20" fill="#FFFFFF">ABBA</text><text x="300" y="428" font-family="Cambria, Georgia, 'Times New Roman', serif" font-size="26" letter-spacing="8" fill="#C2A35B">CONSULTORIA DE IA</text></g>
</svg>
